<?xml version="1.0" standalone="no"?>
<!DOCTYPE svg PUBLIC "-//W3C//DTD SVG 20010904//EN"
 "http://www.w3.org/TR/2001/REC-SVG-20010904/DTD/svg10.dtd">
<svg version="1.0" xmlns="http://www.w3.org/2000/svg"
 width="500.000000pt" height="500.000000pt" viewBox="0 0 500.000000 500.000000"
 preserveAspectRatio="xMidYMid meet">
<metadata>
Created by potrace 1.11, written by Peter Selinger 2001-2013
</metadata>
<g transform="translate(0.000000,500.000000) scale(0.100000,-0.100000)"
fill="#000000" stroke="none">
<path d="M0 2500 l0 -2500 2500 0 2500 0 0 2500 0 2500 -2500 0 -2500 0 0
-2500z m2970 1567 c52 -14 127 -39 167 -57 l72 -32 -51 -47 -51 -47 -80 28
c-211 75 -461 77 -672 5 -139 -48 -240 -112 -364 -231 -144 -139 -231 -284
-278 -464 -36 -135 -38 -362 -5 -496 83 -334 360 -626 684 -720 311 -90 638
-33 887 154 191 145 325 341 382 565 19 75 23 115 23 240 -1 161 -13 240 -58
359 l-25 66 49 50 48 50 30 -73 c126 -303 121 -641 -12 -923 -63 -132 -132
-227 -244 -336 -235 -228 -458 -318 -787 -318 -339 0 -580 103 -816 347 -176
183 -268 366 -304 607 -55 374 57 710 325 976 177 177 361 273 600 316 120 21
362 12 480 -19z m527 -178 c138 -67 176 -249 76 -360 -52 -58 -105 -82 -178
-82 -195 0 -301 219 -182 374 65 86 187 115 284 68z m-595 -557 c80 -39 168
-129 206 -209 24 -53 27 -69 27 -173 0 -106 -2 -120 -28 -172 -85 -173 -268
-271 -448 -240 -329 56 -469 438 -253 690 86 101 188 144 335 139 84 -2 103
-6 161 -35z m1655 -1224 c-14 -24 -136 -254 -272 -513 -136 -259 -252 -475
-259 -482 -7 -7 -76 -13 -191 -17 -99 -4 -232 -9 -295 -11 -63 -3 -187 -7
-275 -10 -88 -3 -218 -7 -290 -10 -71 -3 -193 -7 -270 -10 -77 -2 -205 -7
-285 -10 -544 -21 -1765 -63 -1767 -61 -2 2 87 185 197 407 110 222 201 408
203 413 1 4 229 30 505 57 l502 49 62 -34 c79 -43 207 -88 318 -112 124 -27
382 -25 506 4 187 43 357 123 494 234 l58 48 494 49 c271 27 515 49 541 50
l48 1 -24 -42z"/>
</g>
</svg>
